<mxfile host="app.diagrams.net" modified="2023-11-07T01:07:52.396Z" agent="Mozilla/5.0 (Windows NT 10.0; Win64; x64) AppleWebKit/537.36 (KHTML, like Gecko) Chrome/119.0.0.0 Safari/537.36" etag="mb1cRK1Y8FOaSTYpcxGj" version="22.0.8" type="device">
  <diagram name="Trang-1" id="isFgYuksdIK8F32cxrVV">
    <mxGraphModel dx="1050" dy="581" grid="1" gridSize="10" guides="1" tooltips="1" connect="1" arrows="1" fold="1" page="1" pageScale="1" pageWidth="827" pageHeight="1169" math="0" shadow="0">
      <root>
        <mxCell id="0" />
        <mxCell id="1" parent="0" />
        <mxCell id="ADQzJC_BzgHMaHWSX8ca-1" value="start" style="ellipse;whiteSpace=wrap;html=1;" parent="1" vertex="1">
          <mxGeometry x="330" y="40" width="120" height="80" as="geometry" />
        </mxCell>
        <mxCell id="ADQzJC_BzgHMaHWSX8ca-6" value="Declare variables a,b,c" style="rounded=0;whiteSpace=wrap;html=1;" parent="1" vertex="1">
          <mxGeometry x="330" y="150" width="120" height="60" as="geometry" />
        </mxCell>
        <mxCell id="ADQzJC_BzgHMaHWSX8ca-7" value="&amp;nbsp; a,b,c" style="shape=parallelogram;perimeter=parallelogramPerimeter;whiteSpace=wrap;html=1;fixedSize=1;" parent="1" vertex="1">
          <mxGeometry x="330" y="260" width="120" height="60" as="geometry" />
        </mxCell>
        <mxCell id="ADQzJC_BzgHMaHWSX8ca-8" value="a&amp;gt;b" style="rhombus;whiteSpace=wrap;html=1;" parent="1" vertex="1">
          <mxGeometry x="350" y="390" width="80" height="80" as="geometry" />
        </mxCell>
        <mxCell id="ADQzJC_BzgHMaHWSX8ca-9" value="a&amp;gt;c" style="rhombus;whiteSpace=wrap;html=1;" parent="1" vertex="1">
          <mxGeometry x="350" y="520" width="80" height="80" as="geometry" />
        </mxCell>
        <mxCell id="ADQzJC_BzgHMaHWSX8ca-10" value="min a" style="shape=parallelogram;perimeter=parallelogramPerimeter;whiteSpace=wrap;html=1;fixedSize=1;" parent="1" vertex="1">
          <mxGeometry x="330" y="670" width="120" height="60" as="geometry" />
        </mxCell>
        <mxCell id="ADQzJC_BzgHMaHWSX8ca-11" value="Stop" style="ellipse;whiteSpace=wrap;html=1;" parent="1" vertex="1">
          <mxGeometry x="330" y="790" width="120" height="80" as="geometry" />
        </mxCell>
        <mxCell id="ADQzJC_BzgHMaHWSX8ca-12" value="" style="endArrow=classic;html=1;rounded=0;exitX=0.5;exitY=1;exitDx=0;exitDy=0;" parent="1" source="ADQzJC_BzgHMaHWSX8ca-1" edge="1">
          <mxGeometry width="50" height="50" relative="1" as="geometry">
            <mxPoint x="389.5" y="100" as="sourcePoint" />
            <mxPoint x="389.5" y="150" as="targetPoint" />
          </mxGeometry>
        </mxCell>
        <mxCell id="ADQzJC_BzgHMaHWSX8ca-14" value="" style="endArrow=classic;html=1;rounded=0;" parent="1" edge="1">
          <mxGeometry width="50" height="50" relative="1" as="geometry">
            <mxPoint x="389.5" y="210" as="sourcePoint" />
            <mxPoint x="389.5" y="260" as="targetPoint" />
          </mxGeometry>
        </mxCell>
        <mxCell id="ADQzJC_BzgHMaHWSX8ca-15" value="" style="endArrow=classic;html=1;rounded=0;entryX=0.5;entryY=0;entryDx=0;entryDy=0;" parent="1" target="ADQzJC_BzgHMaHWSX8ca-8" edge="1">
          <mxGeometry width="50" height="50" relative="1" as="geometry">
            <mxPoint x="389.5" y="320" as="sourcePoint" />
            <mxPoint x="389.5" y="370" as="targetPoint" />
          </mxGeometry>
        </mxCell>
        <mxCell id="ADQzJC_BzgHMaHWSX8ca-16" value="" style="endArrow=classic;html=1;rounded=0;" parent="1" edge="1">
          <mxGeometry width="50" height="50" relative="1" as="geometry">
            <mxPoint x="389.5" y="470" as="sourcePoint" />
            <mxPoint x="389.5" y="520" as="targetPoint" />
          </mxGeometry>
        </mxCell>
        <mxCell id="ADQzJC_BzgHMaHWSX8ca-18" value="" style="endArrow=classic;html=1;rounded=0;entryX=0.5;entryY=0;entryDx=0;entryDy=0;exitX=0.5;exitY=1;exitDx=0;exitDy=0;" parent="1" source="ADQzJC_BzgHMaHWSX8ca-9" target="ADQzJC_BzgHMaHWSX8ca-10" edge="1">
          <mxGeometry width="50" height="50" relative="1" as="geometry">
            <mxPoint x="390" y="620" as="sourcePoint" />
            <mxPoint x="440" y="570" as="targetPoint" />
          </mxGeometry>
        </mxCell>
        <mxCell id="ADQzJC_BzgHMaHWSX8ca-19" value="" style="endArrow=classic;html=1;rounded=0;entryX=0.5;entryY=0;entryDx=0;entryDy=0;" parent="1" target="ADQzJC_BzgHMaHWSX8ca-11" edge="1">
          <mxGeometry width="50" height="50" relative="1" as="geometry">
            <mxPoint x="389.5" y="730" as="sourcePoint" />
            <mxPoint x="389.5" y="780" as="targetPoint" />
          </mxGeometry>
        </mxCell>
        <mxCell id="lGsYERG1R4IMq0Ps7J_0-1" value="true" style="text;html=1;strokeColor=none;fillColor=none;align=center;verticalAlign=middle;whiteSpace=wrap;rounded=0;" vertex="1" parent="1">
          <mxGeometry x="380" y="610" width="60" height="30" as="geometry" />
        </mxCell>
        <mxCell id="lGsYERG1R4IMq0Ps7J_0-2" value="true" style="text;html=1;strokeColor=none;fillColor=none;align=center;verticalAlign=middle;whiteSpace=wrap;rounded=0;" vertex="1" parent="1">
          <mxGeometry x="384" y="480" width="60" height="30" as="geometry" />
        </mxCell>
      </root>
    </mxGraphModel>
  </diagram>
</mxfile>
